<mxfile host="Electron" agent="Mozilla/5.0 (Windows NT 10.0; Win64; x64) AppleWebKit/537.36 (KHTML, like Gecko) draw.io/28.0.6 Chrome/138.0.7204.100 Electron/37.2.3 Safari/537.36" version="28.0.6">
  <diagram name="Page-1" id="0ULQ9w3BN_WhCoedX02t">
    <mxGraphModel dx="1892" dy="626" grid="1" gridSize="10" guides="1" tooltips="1" connect="1" arrows="1" fold="1" page="1" pageScale="1" pageWidth="850" pageHeight="1100" math="0" shadow="0">
      <root>
        <mxCell id="0" />
        <mxCell id="1" parent="0" />
        <mxCell id="s3fqJkv5ajgSTjkpfHru-1" value="&lt;span style=&quot;font-size: 20px;&quot;&gt;&lt;font style=&quot;color: rgb(0, 0, 0);&quot;&gt;crm_cust_info&lt;/font&gt;&lt;/span&gt;" style="swimlane;fontStyle=0;childLayout=stackLayout;horizontal=1;startSize=30;horizontalStack=0;resizeParent=1;resizeParentMax=0;resizeLast=0;collapsible=1;marginBottom=0;whiteSpace=wrap;html=1;fillColor=#b1ddf0;strokeColor=#10739e;rounded=1;" parent="1" vertex="1">
          <mxGeometry x="187.5" y="320" width="140" height="110" as="geometry">
            <mxRectangle x="60" y="170" width="170" height="40" as="alternateBounds" />
          </mxGeometry>
        </mxCell>
        <mxCell id="s3fqJkv5ajgSTjkpfHru-2" value="&lt;span style=&quot;font-size: 15px;&quot;&gt;cst_id&lt;/span&gt;" style="text;strokeColor=none;fillColor=none;align=left;verticalAlign=middle;spacingLeft=4;spacingRight=4;overflow=hidden;points=[[0,0.5],[1,0.5]];portConstraint=eastwest;rotatable=0;whiteSpace=wrap;html=1;" parent="s3fqJkv5ajgSTjkpfHru-1" vertex="1">
          <mxGeometry y="30" width="140" height="30" as="geometry" />
        </mxCell>
        <mxCell id="s3fqJkv5ajgSTjkpfHru-28" value="&lt;span style=&quot;font-size: 15px;&quot;&gt;cst_key&lt;/span&gt;" style="text;strokeColor=#10739e;fillColor=none;align=left;verticalAlign=middle;spacingLeft=4;spacingRight=4;overflow=hidden;points=[[0,0.5],[1,0.5]];portConstraint=eastwest;rotatable=0;whiteSpace=wrap;html=1;" parent="s3fqJkv5ajgSTjkpfHru-1" vertex="1">
          <mxGeometry y="60" width="140" height="30" as="geometry" />
        </mxCell>
        <mxCell id="MnSWAzWqjpEByx9OOei6-5" value="&lt;font color=&quot;#000000&quot;&gt;&lt;span style=&quot;font-size: 13px;&quot;&gt;Customer&lt;/span&gt;&lt;/font&gt;" style="text;html=1;strokeColor=#82b366;fillColor=#d5e8d4;align=center;verticalAlign=middle;whiteSpace=wrap;overflow=hidden;rounded=1;gradientColor=#97d077;" vertex="1" parent="s3fqJkv5ajgSTjkpfHru-1">
          <mxGeometry y="90" width="140" height="20" as="geometry" />
        </mxCell>
        <mxCell id="s3fqJkv5ajgSTjkpfHru-6" value="&lt;h1&gt;Integration Model&lt;/h1&gt;" style="text;html=1;align=center;verticalAlign=middle;resizable=0;points=[];autosize=1;strokeColor=none;fillColor=none;" parent="1" vertex="1">
          <mxGeometry x="-100" y="10" width="220" height="70" as="geometry" />
        </mxCell>
        <mxCell id="s3fqJkv5ajgSTjkpfHru-7" value="customer information" style="text;html=1;align=center;verticalAlign=middle;whiteSpace=wrap;rounded=0;" parent="1" vertex="1">
          <mxGeometry x="192.5" y="290" width="130" height="30" as="geometry" />
        </mxCell>
        <mxCell id="s3fqJkv5ajgSTjkpfHru-8" value="&lt;span style=&quot;font-size: 20px;&quot;&gt;&lt;font style=&quot;color: rgb(0, 0, 0);&quot;&gt;crm_prd_info&lt;/font&gt;&lt;/span&gt;" style="swimlane;fontStyle=0;childLayout=stackLayout;horizontal=1;startSize=30;horizontalStack=0;resizeParent=1;resizeParentMax=0;resizeLast=0;collapsible=1;marginBottom=0;whiteSpace=wrap;html=1;fillColor=#b1ddf0;strokeColor=#10739e;rounded=1;" parent="1" vertex="1">
          <mxGeometry x="192.5" y="175" width="140" height="80" as="geometry">
            <mxRectangle x="60" y="170" width="170" height="40" as="alternateBounds" />
          </mxGeometry>
        </mxCell>
        <mxCell id="s3fqJkv5ajgSTjkpfHru-50" value="&lt;span style=&quot;font-size: 15px;&quot;&gt;prd_key&lt;/span&gt;" style="text;strokeColor=none;fillColor=none;align=left;verticalAlign=middle;spacingLeft=4;spacingRight=4;overflow=hidden;points=[[0,0.5],[1,0.5]];portConstraint=eastwest;rotatable=0;whiteSpace=wrap;html=1;" parent="s3fqJkv5ajgSTjkpfHru-8" vertex="1">
          <mxGeometry y="30" width="140" height="30" as="geometry" />
        </mxCell>
        <mxCell id="MnSWAzWqjpEByx9OOei6-4" value="&lt;font style=&quot;font-size: 13px;&quot; color=&quot;#000000&quot;&gt;Product&lt;/font&gt;" style="text;html=1;strokeColor=#ae4132;fillColor=#fad9d5;align=center;verticalAlign=middle;whiteSpace=wrap;overflow=hidden;rounded=1;" vertex="1" parent="s3fqJkv5ajgSTjkpfHru-8">
          <mxGeometry y="60" width="140" height="20" as="geometry" />
        </mxCell>
        <mxCell id="s3fqJkv5ajgSTjkpfHru-10" value="currrent &amp;amp; history product information" style="text;html=1;align=center;verticalAlign=middle;whiteSpace=wrap;rounded=0;" parent="1" vertex="1">
          <mxGeometry x="155" y="145" width="215" height="30" as="geometry" />
        </mxCell>
        <mxCell id="s3fqJkv5ajgSTjkpfHru-13" value="transactional records about sales&amp;amp;orders" style="text;html=1;align=center;verticalAlign=middle;whiteSpace=wrap;rounded=0;" parent="1" vertex="1">
          <mxGeometry x="-97.5" y="200" width="215" height="30" as="geometry" />
        </mxCell>
        <mxCell id="s3fqJkv5ajgSTjkpfHru-19" value="&lt;font style=&quot;color: rgb(0, 0, 0); font-size: 15px;&quot;&gt;crm_sales_details&lt;/font&gt;" style="swimlane;fontStyle=0;childLayout=stackLayout;horizontal=1;startSize=30;horizontalStack=0;resizeParent=1;resizeParentMax=0;resizeLast=0;collapsible=1;marginBottom=0;whiteSpace=wrap;html=1;fillColor=#b1ddf0;strokeColor=#10739e;rounded=1;" parent="1" vertex="1">
          <mxGeometry x="-60" y="230" width="140" height="110" as="geometry">
            <mxRectangle x="60" y="170" width="170" height="40" as="alternateBounds" />
          </mxGeometry>
        </mxCell>
        <mxCell id="s3fqJkv5ajgSTjkpfHru-48" value="" style="rounded=0;whiteSpace=wrap;html=1;fillColor=none;dashed=1;dashPattern=1 2;" parent="s3fqJkv5ajgSTjkpfHru-19" vertex="1">
          <mxGeometry y="30" width="140" as="geometry" />
        </mxCell>
        <mxCell id="s3fqJkv5ajgSTjkpfHru-20" value="&lt;span style=&quot;font-size: 15px;&quot;&gt;prd_key&lt;/span&gt;" style="text;strokeColor=none;fillColor=none;align=left;verticalAlign=middle;spacingLeft=4;spacingRight=4;overflow=hidden;points=[[0,0.5],[1,0.5]];portConstraint=eastwest;rotatable=0;whiteSpace=wrap;html=1;" parent="s3fqJkv5ajgSTjkpfHru-19" vertex="1">
          <mxGeometry y="30" width="140" height="30" as="geometry" />
        </mxCell>
        <mxCell id="s3fqJkv5ajgSTjkpfHru-21" value="&lt;span style=&quot;font-size: 15px;&quot;&gt;cst_id&lt;/span&gt;" style="text;strokeColor=#10739e;fillColor=none;align=left;verticalAlign=middle;spacingLeft=4;spacingRight=4;overflow=hidden;points=[[0,0.5],[1,0.5]];portConstraint=eastwest;rotatable=0;whiteSpace=wrap;html=1;" parent="s3fqJkv5ajgSTjkpfHru-19" vertex="1">
          <mxGeometry y="60" width="140" height="30" as="geometry" />
        </mxCell>
        <mxCell id="MnSWAzWqjpEByx9OOei6-11" value="&lt;font color=&quot;#000000&quot;&gt;&lt;span style=&quot;font-size: 13px;&quot;&gt;Sales&lt;/span&gt;&lt;/font&gt;" style="text;html=1;strokeColor=#82b366;fillColor=#d5e8d4;align=center;verticalAlign=middle;whiteSpace=wrap;overflow=hidden;rounded=1;gradientColor=#97d077;" vertex="1" parent="s3fqJkv5ajgSTjkpfHru-19">
          <mxGeometry y="90" width="140" height="20" as="geometry" />
        </mxCell>
        <mxCell id="s3fqJkv5ajgSTjkpfHru-23" style="edgeStyle=orthogonalEdgeStyle;rounded=0;orthogonalLoop=1;jettySize=auto;html=1;entryX=0;entryY=0.5;entryDx=0;entryDy=0;" parent="1" source="s3fqJkv5ajgSTjkpfHru-21" target="s3fqJkv5ajgSTjkpfHru-2" edge="1">
          <mxGeometry relative="1" as="geometry" />
        </mxCell>
        <mxCell id="s3fqJkv5ajgSTjkpfHru-24" value="&lt;font color=&quot;#000000&quot;&gt;&lt;span style=&quot;font-size: 20px;&quot;&gt;erp_cust_az12&lt;/span&gt;&lt;/font&gt;" style="swimlane;fontStyle=0;childLayout=stackLayout;horizontal=1;startSize=30;horizontalStack=0;resizeParent=1;resizeParentMax=0;resizeLast=0;collapsible=1;marginBottom=0;whiteSpace=wrap;html=1;fillColor=#fad7ac;strokeColor=#b46504;rounded=1;" parent="1" vertex="1">
          <mxGeometry x="540" y="280" width="140" height="80" as="geometry">
            <mxRectangle x="60" y="170" width="170" height="40" as="alternateBounds" />
          </mxGeometry>
        </mxCell>
        <mxCell id="s3fqJkv5ajgSTjkpfHru-34" value="&lt;span style=&quot;font-size: 15px;&quot;&gt;cid&lt;/span&gt;" style="text;strokeColor=none;fillColor=none;align=left;verticalAlign=middle;spacingLeft=4;spacingRight=4;overflow=hidden;points=[[0,0.5],[1,0.5]];portConstraint=eastwest;rotatable=0;whiteSpace=wrap;html=1;" parent="s3fqJkv5ajgSTjkpfHru-24" vertex="1">
          <mxGeometry y="30" width="140" height="30" as="geometry" />
        </mxCell>
        <mxCell id="MnSWAzWqjpEByx9OOei6-6" value="&lt;font color=&quot;#000000&quot;&gt;&lt;span style=&quot;font-size: 13px;&quot;&gt;Customer&lt;/span&gt;&lt;/font&gt;" style="text;html=1;strokeColor=#82b366;fillColor=#d5e8d4;align=center;verticalAlign=middle;whiteSpace=wrap;overflow=hidden;rounded=1;gradientColor=#97d077;" vertex="1" parent="s3fqJkv5ajgSTjkpfHru-24">
          <mxGeometry y="60" width="140" height="20" as="geometry" />
        </mxCell>
        <mxCell id="s3fqJkv5ajgSTjkpfHru-29" value="extar customer infomation&lt;div&gt;(birthdate)&lt;/div&gt;" style="text;html=1;align=center;verticalAlign=middle;whiteSpace=wrap;rounded=0;" parent="1" vertex="1">
          <mxGeometry x="535" y="250" width="145" height="30" as="geometry" />
        </mxCell>
        <mxCell id="s3fqJkv5ajgSTjkpfHru-37" value="&lt;font color=&quot;#000000&quot;&gt;&lt;span style=&quot;font-size: 20px;&quot;&gt;erp_loc_a101&lt;/span&gt;&lt;/font&gt;" style="swimlane;fontStyle=0;childLayout=stackLayout;horizontal=1;startSize=30;horizontalStack=0;resizeParent=1;resizeParentMax=0;resizeLast=0;collapsible=1;marginBottom=0;whiteSpace=wrap;html=1;fillColor=#fad7ac;strokeColor=#b46504;rounded=1;arcSize=14;" parent="1" vertex="1">
          <mxGeometry x="540" y="410" width="140" height="80" as="geometry">
            <mxRectangle x="60" y="170" width="170" height="40" as="alternateBounds" />
          </mxGeometry>
        </mxCell>
        <mxCell id="s3fqJkv5ajgSTjkpfHru-38" value="&lt;span style=&quot;font-size: 15px;&quot;&gt;cid&lt;/span&gt;" style="text;strokeColor=#b46504;fillColor=none;align=left;verticalAlign=middle;spacingLeft=4;spacingRight=4;overflow=hidden;points=[[0,0.5],[1,0.5]];portConstraint=eastwest;rotatable=0;whiteSpace=wrap;html=1;" parent="s3fqJkv5ajgSTjkpfHru-37" vertex="1">
          <mxGeometry y="30" width="140" height="30" as="geometry" />
        </mxCell>
        <mxCell id="MnSWAzWqjpEByx9OOei6-7" value="&lt;font color=&quot;#000000&quot;&gt;&lt;span style=&quot;font-size: 13px;&quot;&gt;Customer&lt;/span&gt;&lt;/font&gt;" style="text;html=1;strokeColor=#82b366;fillColor=#d5e8d4;align=center;verticalAlign=middle;whiteSpace=wrap;overflow=hidden;rounded=1;gradientColor=#97d077;" vertex="1" parent="s3fqJkv5ajgSTjkpfHru-37">
          <mxGeometry y="60" width="140" height="20" as="geometry" />
        </mxCell>
        <mxCell id="s3fqJkv5ajgSTjkpfHru-39" value="loction of customers (country)" style="text;html=1;align=center;verticalAlign=middle;whiteSpace=wrap;rounded=0;" parent="1" vertex="1">
          <mxGeometry x="535" y="370" width="145" height="30" as="geometry" />
        </mxCell>
        <mxCell id="s3fqJkv5ajgSTjkpfHru-41" value="&lt;font style=&quot;font-size: 17px;&quot; color=&quot;#000000&quot;&gt;erp_px_cat_g1v2&lt;/font&gt;" style="swimlane;fontStyle=0;childLayout=stackLayout;horizontal=1;startSize=30;horizontalStack=0;resizeParent=1;resizeParentMax=0;resizeLast=0;collapsible=1;marginBottom=0;whiteSpace=wrap;html=1;fillColor=#fad7ac;strokeColor=#b46504;rounded=1;" parent="1" vertex="1">
          <mxGeometry x="530" y="160" width="140" height="80" as="geometry">
            <mxRectangle x="60" y="170" width="170" height="40" as="alternateBounds" />
          </mxGeometry>
        </mxCell>
        <mxCell id="s3fqJkv5ajgSTjkpfHru-42" value="&lt;span style=&quot;font-size: 15px;&quot;&gt;id&lt;/span&gt;" style="text;strokeColor=none;fillColor=none;align=left;verticalAlign=middle;spacingLeft=4;spacingRight=4;overflow=hidden;points=[[0,0.5],[1,0.5]];portConstraint=eastwest;rotatable=0;whiteSpace=wrap;html=1;" parent="s3fqJkv5ajgSTjkpfHru-41" vertex="1">
          <mxGeometry y="30" width="140" height="30" as="geometry" />
        </mxCell>
        <mxCell id="MnSWAzWqjpEByx9OOei6-2" value="&lt;font style=&quot;font-size: 13px;&quot; color=&quot;#000000&quot;&gt;Product&lt;/font&gt;" style="text;html=1;strokeColor=#ae4132;fillColor=#fad9d5;align=center;verticalAlign=middle;whiteSpace=wrap;overflow=hidden;rounded=1;" vertex="1" parent="s3fqJkv5ajgSTjkpfHru-41">
          <mxGeometry y="60" width="140" height="20" as="geometry" />
        </mxCell>
        <mxCell id="s3fqJkv5ajgSTjkpfHru-43" value="product categories" style="text;html=1;align=center;verticalAlign=middle;whiteSpace=wrap;rounded=0;" parent="1" vertex="1">
          <mxGeometry x="527.5" y="130" width="145" height="30" as="geometry" />
        </mxCell>
        <mxCell id="s3fqJkv5ajgSTjkpfHru-46" value="&lt;h5&gt;&lt;font style=&quot;font-size: 20px; color: rgb(0, 0, 0);&quot;&gt;CRM&lt;/font&gt;&lt;/h5&gt;" style="text;html=1;align=center;verticalAlign=middle;whiteSpace=wrap;rounded=1;fillColor=#b1ddf0;strokeColor=#10739e;" parent="1" vertex="1">
          <mxGeometry x="80" y="100" width="60" height="30" as="geometry" />
        </mxCell>
        <mxCell id="s3fqJkv5ajgSTjkpfHru-51" style="edgeStyle=orthogonalEdgeStyle;rounded=0;orthogonalLoop=1;jettySize=auto;html=1;entryX=0;entryY=0.5;entryDx=0;entryDy=0;" parent="1" source="s3fqJkv5ajgSTjkpfHru-20" target="s3fqJkv5ajgSTjkpfHru-50" edge="1">
          <mxGeometry relative="1" as="geometry" />
        </mxCell>
        <mxCell id="s3fqJkv5ajgSTjkpfHru-52" style="edgeStyle=orthogonalEdgeStyle;rounded=0;orthogonalLoop=1;jettySize=auto;html=1;" parent="1" source="s3fqJkv5ajgSTjkpfHru-42" target="s3fqJkv5ajgSTjkpfHru-50" edge="1">
          <mxGeometry relative="1" as="geometry" />
        </mxCell>
        <mxCell id="s3fqJkv5ajgSTjkpfHru-55" value="" style="rounded=1;whiteSpace=wrap;html=1;fillColor=none;dashed=1;dashPattern=1 2;" parent="1" vertex="1">
          <mxGeometry x="-130" y="115" width="480" height="340" as="geometry" />
        </mxCell>
        <mxCell id="s3fqJkv5ajgSTjkpfHru-56" value="" style="rounded=1;whiteSpace=wrap;html=1;fillColor=none;dashed=1;dashPattern=1 2;" parent="1" vertex="1">
          <mxGeometry x="362.5" y="115" width="480" height="380" as="geometry" />
        </mxCell>
        <mxCell id="s3fqJkv5ajgSTjkpfHru-57" value="&lt;h5&gt;&lt;font color=&quot;#000000&quot;&gt;&lt;span style=&quot;font-size: 20px;&quot;&gt;ERP&lt;/span&gt;&lt;/font&gt;&lt;/h5&gt;" style="text;html=1;align=center;verticalAlign=middle;whiteSpace=wrap;rounded=1;fillColor=#fad7ac;strokeColor=#b46504;" parent="1" vertex="1">
          <mxGeometry x="572.5" y="100" width="60" height="30" as="geometry" />
        </mxCell>
        <mxCell id="MnSWAzWqjpEByx9OOei6-15" style="edgeStyle=orthogonalEdgeStyle;rounded=0;orthogonalLoop=1;jettySize=auto;html=1;entryX=1;entryY=0.5;entryDx=0;entryDy=0;" edge="1" parent="1" source="s3fqJkv5ajgSTjkpfHru-38" target="s3fqJkv5ajgSTjkpfHru-28">
          <mxGeometry relative="1" as="geometry" />
        </mxCell>
        <mxCell id="MnSWAzWqjpEByx9OOei6-16" style="edgeStyle=orthogonalEdgeStyle;rounded=0;orthogonalLoop=1;jettySize=auto;html=1;" edge="1" parent="1" source="s3fqJkv5ajgSTjkpfHru-34" target="s3fqJkv5ajgSTjkpfHru-28">
          <mxGeometry relative="1" as="geometry" />
        </mxCell>
      </root>
    </mxGraphModel>
  </diagram>
</mxfile>
